# This file uses centimeters as units for non-parametric coordinates.

mtllib Heart.mtl
g default
v -1.516944 0.960650 0.013701
v -0.058335 -1.397754 0.013701
v -1.165214 1.315317 0.013701
v -0.058335 0.852709 0.013701
v -0.152634 -1.243436 0.013701
v -0.821119 1.397754 0.013701
v -1.598131 0.640549 0.013701
v -1.212140 -0.243171 0.013701
v -1.512565 0.198689 0.013701
v -0.401249 1.268846 0.013701
v -1.382380 1.158635 0.013701
v -0.202717 1.095196 0.013701
v -1.383003 -0.036008 0.013701
v -1.582883 0.405851 0.013701
v -0.604300 1.367718 0.013701
v 1.400273 0.960650 0.013701
v 1.048543 1.315317 0.013701
v 0.035964 -1.243436 0.013701
v 0.704448 1.397754 0.013701
v 1.481461 0.640549 0.013701
v 1.095469 -0.243171 0.013701
v 1.395894 0.198689 0.013701
v 0.284578 1.268846 0.013701
v 1.265710 1.158635 0.013701
v 0.086046 1.095196 0.013701
v 1.266333 -0.036008 0.013701
v 1.466212 0.405851 0.013701
v 0.487629 1.367718 0.013701
v 0.086046 1.095196 -0.304213
v -0.058335 0.852709 -0.324587
v 0.284578 1.268846 -0.229507
v 0.487630 1.367718 -0.168385
v 0.704448 1.397754 -0.168385
v 1.048543 1.315317 -0.229507
v 1.265710 1.158635 -0.304213
v 1.400273 0.960650 -0.324587
v 1.481461 0.640549 -0.344962
v 1.466212 0.405851 -0.351753
v 1.395894 0.198689 -0.351753
v 1.266333 -0.036008 -0.351753
v 1.095469 -0.243171 -0.344962
v 0.035964 -1.243436 -0.229507
v -0.058335 -1.397754 -0.168385
v -0.152634 -1.243436 -0.229507
v -1.212140 -0.243171 -0.344962
v -1.383003 -0.036008 -0.351753
v -1.512565 0.198689 -0.351753
v -1.582883 0.405851 -0.351753
v -1.598131 0.640549 -0.344962
v -1.516944 0.960650 -0.324587
v -1.382380 1.158635 -0.304213
v -1.165214 1.315317 -0.229507
v -0.821119 1.397754 -0.168385
v -0.604300 1.367718 -0.168385
v -0.401249 1.268846 -0.229507
v -0.202717 1.095196 -0.304213
v 0.777618 -0.543250 -0.324587
v -0.894288 -0.543250 -0.324587
v -0.894288 -0.543250 0.013701
v 0.777618 -0.543250 0.013701
v -0.858510 0.405852 -0.351753
v -0.058335 0.405852 -0.351753
v 0.741839 0.405852 -0.351753
v 0.749649 0.198689 -0.351753
v -0.058335 0.198689 -0.351753
v -0.866320 0.198689 -0.351753
v 0.758496 -0.036008 -0.351753
v -0.058335 -0.036008 -0.351753
v -0.875167 -0.036008 -0.351753
v 0.766305 -0.243171 -0.344962
v -0.058335 -0.243170 -0.344962
v -0.882976 -0.243171 -0.344962
v -0.849663 0.640549 -0.344962
v -0.058335 0.640549 -0.344962
v 0.732992 0.640549 -0.344962
v -0.202717 1.095196 0.304213
v -0.058335 0.852709 0.324587
v -0.401249 1.268846 0.229507
v -0.604300 1.367718 0.168385
v -0.821119 1.397754 0.168385
v -1.165214 1.315317 0.229507
v -1.382380 1.158635 0.304213
v -1.516944 0.960650 0.324587
v -1.598132 0.640549 0.344961
v -1.582883 0.405851 0.351753
v -1.512565 0.198689 0.351753
v -1.383004 -0.036008 0.351753
v -1.212140 -0.243171 0.344961
v -0.152634 -1.243436 0.229507
v -0.058335 -1.397754 0.168385
v 0.035963 -1.243436 0.229507
v 1.095469 -0.243171 0.344961
v 1.266333 -0.036008 0.351753
v 1.395894 0.198689 0.351753
v 1.466212 0.405851 0.351753
v 1.481461 0.640549 0.344961
v 1.400273 0.960650 0.324587
v 1.265710 1.158635 0.304213
v 1.048543 1.315317 0.229507
v 0.704448 1.397754 0.168385
v 0.487629 1.367718 0.168385
v 0.284578 1.268846 0.229507
v 0.086046 1.095196 0.304213
v -0.894288 -0.543250 0.324587
v 0.777618 -0.543250 0.324587
v 0.741839 0.405852 0.351753
v -0.058335 0.405852 0.351753
v -0.858510 0.405852 0.351753
v -0.866320 0.198689 0.351753
v -0.058335 0.198689 0.351753
v 0.749649 0.198689 0.351753
v -0.875167 -0.036008 0.351753
v -0.058335 -0.036008 0.351753
v 0.758496 -0.036008 0.351753
v -0.882976 -0.243171 0.344961
v -0.058335 -0.243170 0.344961
v 0.766305 -0.243171 0.344961
v 0.732992 0.640549 0.344961
v -0.058335 0.640549 0.344961
v -0.849663 0.640549 0.344961
vt 0.291105 1.000000
vt 0.468329 1.000000
vt 0.645553 1.000000
vt 0.822776 1.000000
vt 1.000000 0.000000
vt 0.291105 0.000000
vt 0.174663 0.000000
vt 0.145553 0.000000
vt 0.116442 0.000000
vt 0.087332 0.000000
vt 0.058221 0.000000
vt 0.000000 0.000000
vt 0.000000 0.500000
vt 0.000000 1.000000
vt 0.291105 1.000000
vt 0.000000 1.000000
vt 0.000000 0.500000
vt 0.000000 0.000000
vt 0.058221 0.000000
vt 0.087332 0.000000
vt 0.116442 0.000000
vt 0.145553 0.000000
vt 0.174663 0.000000
vt 0.291105 0.000000
vt 1.000000 1.000000
vt 0.822776 1.000000
vt 0.645553 1.000000
vt 0.468329 1.000000
vt 1.000000 1.000000
vt 0.822776 1.000000
vt 0.645553 1.000000
vt 0.468329 1.000000
vt 0.291105 1.000000
vt 0.000000 1.000000
vt 0.000000 0.500000
vt 0.000000 0.000000
vt 0.058221 0.000000
vt 0.087332 0.000000
vt 0.116442 0.000000
vt 0.145553 0.000000
vt 0.174663 0.000000
vt 0.291105 0.000000
vt 1.000000 0.000000
vt 0.291105 0.000000
vt 0.174663 0.000000
vt 0.145553 0.000000
vt 0.116442 0.000000
vt 0.087332 0.000000
vt 0.058221 0.000000
vt 0.000000 0.000000
vt 0.000000 0.500000
vt 0.000000 1.000000
vt 0.291105 1.000000
vt 0.468329 1.000000
vt 0.645553 1.000000
vt 0.822776 1.000000
vt 0.209596 0.000000
vt 0.209596 0.000000
vt 0.209596 0.000000
vt 0.209596 0.000000
vt 0.249452 0.488975
vt 1.000000 0.801438
vt 0.249452 0.488975
vt 0.240752 0.382245
vt 1.000000 0.709384
vt 0.240752 0.382245
vt 0.230896 0.261330
vt 1.000000 0.605096
vt 0.230896 0.261330
vt 0.222197 0.154600
vt 1.000000 0.513043
vt 0.222197 0.154600
vt 0.259307 0.609890
vt 1.000000 0.905726
vt 0.259307 0.609890
vt 0.087332 0.000000
vt 0.249452 0.488975
vt 0.240752 0.382245
vt 0.116442 0.000000
vt 1.000000 1.000000
vt 0.822776 1.000000
vt 0.822776 1.000000
vt 1.000000 1.000000
vt 0.645553 1.000000
vt 0.645553 1.000000
vt 0.468329 1.000000
vt 0.468329 1.000000
vt 0.291105 1.000000
vt 0.291105 1.000000
vt 0.000000 1.000000
vt 0.000000 1.000000
vt 0.000000 0.500000
vt 0.000000 0.500000
vt 0.000000 0.000000
vt 0.000000 0.000000
vt 0.058221 0.000000
vt 0.058221 0.000000
vt 0.087332 0.000000
vt 0.087332 0.000000
vt 0.116442 0.000000
vt 0.116442 0.000000
vt 0.145553 0.000000
vt 0.145553 0.000000
vt 0.174663 0.000000
vt 0.174663 0.000000
vt 0.209596 0.000000
vt 0.291105 0.000000
vt 0.291105 0.000000
vt 0.209596 0.000000
vt 1.000000 0.000000
vt 1.000000 0.000000
vt 0.291105 0.000000
vt 0.291105 0.000000
vt 0.209596 0.000000
vt 0.174663 0.000000
vt 0.174663 0.000000
vt 0.209596 0.000000
vt 0.145553 0.000000
vt 0.145553 0.000000
vt 0.116442 0.000000
vt 0.087332 0.000000
vt 0.058221 0.000000
vt 0.058221 0.000000
vt 0.000000 0.000000
vt 0.000000 0.000000
vt 0.000000 0.500000
vt 0.000000 0.500000
vt 0.000000 1.000000
vt 0.000000 1.000000
vt 0.291105 1.000000
vt 0.291105 1.000000
vt 0.468329 1.000000
vt 0.468329 1.000000
vt 0.645553 1.000000
vt 0.645553 1.000000
vt 0.822776 1.000000
vt 0.822776 1.000000
vt 1.000000 0.801438
vt 0.249452 0.488975
vt 0.240752 0.382245
vt 1.000000 0.709384
vt 0.259307 0.609890
vt 1.000000 0.905726
vt 0.259307 0.609890
vt 0.230896 0.261330
vt 1.000000 0.605096
vt 0.230896 0.261330
vt 0.222197 0.154600
vt 1.000000 0.513043
vt 0.222197 0.154600
vn -0.000000 0.017809 -0.999841
vn -0.000000 0.015551 -0.999879
vn 0.000000 0.000000 -1.000000
vn 0.000000 0.000000 -1.000000
vn -0.859224 0.511599 -0.000000
vn -0.779537 0.626356 -0.000000
vn -0.790889 0.611960 -0.000000
vn -0.859224 0.511599 -0.000000
vn -0.576394 0.817172 -0.000000
vn -0.593461 0.804863 -0.000000
vn -0.305230 0.952279 -0.000000
vn -0.316772 0.948502 -0.000000
vn 0.106455 0.994318 -0.000000
vn 0.115048 0.993360 -0.000000
vn 0.416804 0.908996 -0.000000
vn 0.441171 0.897423 -0.000000
vn 0.719676 0.694310 0.000000
vn 0.734245 0.678885 0.000000
vn 0.925114 0.379689 0.000000
vn 0.928084 0.372371 0.000000
vn 0.993354 0.115100 0.000000
vn 0.993863 0.110617 0.000000
vn 0.981644 -0.190723 0.000000
vn 0.981410 -0.191923 0.000000
vn 0.911115 -0.412152 0.000000
vn 0.911115 -0.412152 0.000000
vn 0.827205 -0.561901 0.000000
vn 0.827628 -0.561277 0.000000
vn 0.702410 -0.711773 0.000000
vn 0.703015 -0.711175 0.000000
vn 0.686486 -0.727143 0.000000
vn 0.701440 -0.712728 0.000000
vn 0.697922 -0.716174 0.000000
vn 0.686486 -0.727143 0.000000
vn 0.853298 -0.521423 0.000000
vn 0.853298 -0.521424 0.000000
vn -0.853298 -0.521424 -0.000000
vn -0.701440 -0.712728 -0.000000
vn -0.697922 -0.716174 -0.000000
vn -0.853298 -0.521424 -0.000000
vn -0.686486 -0.727143 -0.000000
vn -0.702410 -0.711773 -0.000000
vn -0.703015 -0.711175 -0.000000
vn -0.686486 -0.727143 -0.000000
vn -0.827205 -0.561900 0.000000
vn -0.827628 -0.561277 0.000000
vn -0.911115 -0.412151 0.000000
vn -0.911115 -0.412151 0.000000
vn -0.981644 -0.190722 0.000000
vn -0.981410 -0.191922 0.000000
vn -0.993354 0.115100 0.000000
vn -0.993863 0.110617 0.000000
vn -0.925115 0.379688 0.000000
vn -0.928084 0.372370 0.000000
vn -0.719676 0.694310 0.000000
vn -0.734245 0.678885 0.000000
vn -0.416804 0.908996 0.000000
vn -0.441171 0.897423 0.000000
vn -0.106455 0.994318 -0.000000
vn -0.115048 0.993360 -0.000000
vn 0.305230 0.952279 -0.000000
vn 0.316772 0.948502 -0.000000
vn 0.576394 0.817172 0.000000
vn 0.593461 0.804863 0.000000
vn 0.779537 0.626356 0.000000
vn 0.790889 0.611960 0.000000
vn 0.859224 0.511599 0.000000
vn 0.859224 0.511599 0.000000
vn 0.000000 0.015293 -0.999883
vn 0.000000 0.015551 -0.999879
vn 0.000000 0.000000 -1.000000
vn 0.000000 0.000000 -1.000000
vn 0.000000 0.000000 -1.000000
vn 0.000000 0.017809 -0.999841
vn 0.052259 0.118316 -0.991600
vn 0.008366 0.133786 -0.990975
vn -0.000000 0.145393 -0.989374
vn -0.008366 0.133786 -0.990975
vn -0.052259 0.118316 -0.991600
vn 0.000000 -0.007008 -0.999975
vn -0.000000 -0.014534 -0.999894
vn -0.000000 -0.015451 -0.999881
vn 0.000000 -0.014534 -0.999894
vn 0.000000 -0.007008 -0.999975
vn 0.000000 -0.038384 -0.999263
vn -0.032659 -0.085492 -0.995803
vn 0.000000 -0.092139 -0.995746
vn 0.032659 -0.085492 -0.995803
vn 0.000000 -0.038384 -0.999263
vn -0.047620 -0.107941 -0.993016
vn -0.049109 -0.109194 -0.992807
vn 0.000000 -0.109325 -0.994006
vn 0.049109 -0.109194 -0.992807
vn 0.047620 -0.107941 -0.993016
vn 0.005482 0.176338 -0.984314
vn 0.075388 0.157779 -0.984592
vn 0.075388 0.157779 -0.984592
vn 0.075388 0.157779 -0.984592
vn -0.000000 0.190787 -0.981631
vn -0.050555 0.190543 -0.980376
vn -0.050555 0.190543 -0.980376
vn -0.050555 0.190543 -0.980376
vn 0.050555 0.190543 -0.980376
vn 0.050555 0.190543 -0.980376
vn 0.050555 0.190543 -0.980376
vn -0.005482 0.176338 -0.984314
vn -0.075388 0.157779 -0.984593
vn -0.075388 0.157779 -0.984592
vn -0.075388 0.157779 -0.984593
vn 0.000000 0.017810 0.999841
vn 0.000000 0.015552 0.999879
vn 0.000000 0.000000 1.000000
vn 0.000000 0.000000 1.000000
vn 0.859224 0.511599 0.000000
vn 0.780300 0.625405 0.000000
vn 0.791603 0.611035 0.000000
vn 0.859224 0.511599 0.000000
vn 0.578216 0.815884 0.000000
vn 0.595075 0.803670 0.000000
vn 0.307115 0.951673 0.000000
vn 0.318608 0.947886 0.000000
vn -0.108574 0.994088 -0.000000
vn -0.117090 0.993121 -0.000000
vn -0.419959 0.907543 -0.000000
vn -0.444218 0.895919 -0.000000
vn -0.720627 0.693323 0.000000
vn -0.735154 0.677900 0.000000
vn -0.925286 0.379272 -0.000000
vn -0.928248 0.371961 -0.000000
vn -0.993382 0.114855 -0.000001
vn -0.993891 0.110370 -0.000001
vn -0.981634 -0.190771 -0.000001
vn -0.981400 -0.191971 -0.000001
vn -0.911115 -0.412152 -0.000000
vn -0.911115 -0.412152 -0.000000
vn -0.827225 -0.561871 -0.000000
vn -0.827648 -0.561248 -0.000000
vn -0.702598 -0.711587 -0.000000
vn -0.703209 -0.710983 -0.000000
vn -0.686486 -0.727143 -0.000000
vn -0.700839 -0.713320 -0.000000
vn -0.697453 -0.716631 -0.000000
vn -0.686486 -0.727143 -0.000000
vn -0.853298 -0.521424 -0.000000
vn -0.853298 -0.521424 -0.000000
vn 0.853298 -0.521424 0.000001
vn 0.700839 -0.713320 0.000000
vn 0.697453 -0.716631 0.000000
vn 0.853298 -0.521424 0.000001
vn 0.686486 -0.727143 -0.000000
vn 0.702598 -0.711587 -0.000000
vn 0.703209 -0.710983 -0.000000
vn 0.686486 -0.727143 -0.000000
vn 0.827225 -0.561871 0.000000
vn 0.827648 -0.561247 0.000000
vn 0.911115 -0.412152 0.000000
vn 0.911115 -0.412152 0.000000
vn 0.981634 -0.190772 0.000000
vn 0.981400 -0.191972 0.000000
vn 0.993382 0.114855 0.000000
vn 0.993891 0.110370 0.000000
vn 0.925286 0.379272 0.000000
vn 0.928248 0.371961 0.000000
vn 0.720627 0.693323 0.000000
vn 0.735154 0.677900 0.000000
vn 0.419958 0.907543 0.000000
vn 0.444218 0.895919 0.000000
vn 0.108574 0.994088 0.000000
vn 0.117090 0.993121 0.000000
vn -0.307115 0.951672 0.000000
vn -0.318608 0.947887 0.000000
vn -0.578216 0.815884 -0.000000
vn -0.595075 0.803670 -0.000000
vn -0.780300 0.625405 -0.000000
vn -0.791603 0.611035 -0.000000
vn -0.859224 0.511599 -0.000000
vn -0.859224 0.511599 -0.000000
vn 0.000000 0.015293 0.999883
vn -0.000000 0.015552 0.999879
vn 0.000000 0.000000 1.000000
vn 0.000000 0.000000 1.000000
vn 0.000000 0.000000 1.000000
vn -0.000000 0.017810 0.999841
vn -0.052259 0.118316 0.991600
vn -0.008366 0.133786 0.990975
vn 0.000000 0.145393 0.989374
vn 0.008366 0.133786 0.990975
vn 0.052259 0.118316 0.991600
vn -0.000000 -0.007008 0.999975
vn -0.000000 -0.014534 0.999894
vn 0.000000 -0.015451 0.999881
vn 0.000000 -0.014534 0.999894
vn 0.000000 -0.007008 0.999976
vn -0.000000 -0.038386 0.999263
vn 0.032659 -0.085492 0.995804
vn -0.000000 -0.092139 0.995746
vn -0.032659 -0.085492 0.995804
vn 0.000000 -0.038386 0.999263
vn 0.047620 -0.107941 0.993016
vn 0.049109 -0.109193 0.992807
vn -0.000000 -0.109325 0.994006
vn -0.049109 -0.109193 0.992807
vn -0.047620 -0.107941 0.993016
vn -0.005482 0.176337 0.984315
vn -0.075388 0.157779 0.984593
vn -0.075388 0.157779 0.984593
vn -0.075388 0.157779 0.984593
vn -0.000000 0.190787 0.981631
vn 0.050555 0.190543 0.980376
vn 0.050555 0.190543 0.980376
vn 0.050555 0.190543 0.980376
vn -0.050555 0.190543 0.980376
vn -0.050555 0.190543 0.980376
vn -0.050555 0.190543 0.980376
vn 0.005482 0.176337 0.984315
vn 0.075388 0.157779 0.984593
vn 0.075388 0.157779 0.984593
vn 0.075388 0.157779 0.984593
s 1
g polySurface4
usemtl initialShadingGroup
f 48/48/1 61/61/2 66/66/3 47/47/4
s 2
f 4/25/5 25/26/6 29/30/7 30/29/8
f 25/26/6 23/27/9 31/31/10 29/30/7
f 23/27/9 28/28/11 32/32/12 31/31/10
f 28/28/11 19/15/13 33/33/14 32/32/12
f 19/15/13 17/16/15 34/34/16 33/33/14
f 17/16/15 24/17/17 35/35/18 34/34/16
f 24/17/17 16/18/19 36/36/20 35/35/18
f 16/18/19 20/19/21 37/37/22 36/36/20
f 20/19/21 27/20/23 38/38/24 37/37/22
f 27/20/23 22/21/25 39/39/26 38/38/24
f 22/21/25 26/22/27 40/40/28 39/39/26
f 26/22/27 21/23/29 41/41/30 40/40/28
f 21/23/29 60/60/31 18/24/32 42/42/33 57/57/34 41/41/30
f 18/24/32 2/5/35 43/43/36 42/42/33
s 3
f 2/5/37 5/6/38 44/44/39 43/43/40
f 5/6/38 59/59/41 8/7/42 45/45/43 58/58/44 44/44/39
f 8/7/42 13/8/45 46/46/46 45/45/43
f 13/8/45 9/9/47 47/47/48 46/46/46
f 9/9/47 14/10/49 48/48/50 47/47/48
f 14/10/49 7/11/51 49/49/52 48/48/50
f 7/11/51 1/12/53 50/50/54 49/49/52
f 1/12/53 11/13/55 51/51/56 50/50/54
f 11/13/55 3/14/57 52/52/58 51/51/56
f 3/14/57 6/1/59 53/53/60 52/52/58
f 6/1/59 15/2/61 54/54/62 53/53/60
f 15/2/61 10/3/63 55/55/64 54/54/62
f 10/3/63 12/4/65 56/56/66 55/55/64
f 12/4/65 4/25/67 30/29/68 56/56/66
s 1
f 62/62/69 63/63/70 64/64/71 65/65/72
f 39/39/73 64/64/71 63/63/70 38/38/74
f 61/61/2 62/62/69 65/65/72 66/66/3
f 49/49/75 73/73/76 61/61/2 48/48/1
f 73/73/76 74/74/77 62/62/69 61/61/2
f 74/74/77 75/75/78 63/63/70 62/62/69
f 38/38/74 63/63/70 75/75/78 37/37/79
f 40/40/80 67/67/81 64/64/71 39/39/73
f 65/65/72 64/64/71 67/67/81 68/68/82
f 66/66/3 65/65/72 68/68/82 69/69/83
f 47/47/4 66/66/3 69/69/83 46/46/84
f 41/41/85 70/70/86 67/67/81 40/40/80
f 68/68/82 67/67/81 70/70/86 71/71/87
f 69/69/83 68/68/82 71/71/87 72/72/88
f 46/46/84 69/69/83 72/72/88 45/45/89
f 57/57/90 70/70/86 41/41/85
f 71/71/87 70/70/86 57/57/90 42/42/91 43/43/92
f 72/72/88 71/71/87 43/43/92 44/44/93 58/58/94
f 45/45/89 72/72/88 58/58/94
f 53/53/95 73/73/76 49/49/75 50/50/96 51/51/97 52/52/98
f 30/29/99 74/74/77 73/73/76 53/53/95 54/54/100 55/55/101 56/56/102
f 30/29/99 29/30/103 31/31/104 32/32/105 33/33/106 75/75/78 74/74/77
f 37/37/79 75/75/78 33/33/106 34/34/107 35/35/108 36/36/109
s 5
f 95/76/110 106/77/111 111/78/112 94/79/113
s 6
f 4/80/114 12/81/115 76/82/116 77/83/117
f 12/81/115 10/84/118 78/85/119 76/82/116
f 10/84/118 15/86/120 79/87/121 78/85/119
f 15/86/120 6/88/122 80/89/123 79/87/121
f 6/88/122 3/90/124 81/91/125 80/89/123
f 3/90/124 11/92/126 82/93/127 81/91/125
f 11/92/126 1/94/128 83/95/129 82/93/127
f 1/94/128 7/96/130 84/97/131 83/95/129
f 7/96/130 14/98/132 85/99/133 84/97/131
f 14/98/132 9/100/134 86/101/135 85/99/133
f 9/100/134 13/102/136 87/103/137 86/101/135
f 13/102/136 8/104/138 88/105/139 87/103/137
f 8/104/138 59/106/140 5/107/141 89/108/142 104/109/143 88/105/139
f 5/107/141 2/110/144 90/111/145 89/108/142
s 7
f 2/110/146 18/112/147 91/113/148 90/111/149
f 18/112/147 60/114/150 21/115/151 92/116/152 105/117/153 91/113/148
f 21/115/151 26/118/154 93/119/155 92/116/152
f 26/118/154 22/120/156 94/79/157 93/119/155
f 22/120/156 27/121/158 95/76/159 94/79/157
f 27/121/158 20/122/160 96/123/161 95/76/159
f 20/122/160 16/124/162 97/125/163 96/123/161
f 16/124/162 24/126/164 98/127/165 97/125/163
f 24/126/164 17/128/166 99/129/167 98/127/165
f 17/128/166 19/130/168 100/131/169 99/129/167
f 19/130/168 28/132/170 101/133/171 100/131/169
f 28/132/170 23/134/172 102/135/173 101/133/171
f 23/134/172 25/136/174 103/137/175 102/135/173
f 25/136/174 4/80/176 77/83/177 103/137/175
s 5
f 107/138/178 108/139/179 109/140/180 110/141/181
f 86/101/182 109/140/180 108/139/179 85/99/183
f 106/77/111 107/138/178 110/141/181 111/78/112
f 96/123/184 118/142/185 106/77/111 95/76/110
f 118/142/185 119/143/186 107/138/178 106/77/111
f 119/143/186 120/144/187 108/139/179 107/138/178
f 85/99/183 108/139/179 120/144/187 84/97/188
f 87/103/189 112/145/190 109/140/180 86/101/182
f 110/141/181 109/140/180 112/145/190 113/146/191
f 111/78/112 110/141/181 113/146/191 114/147/192
f 94/79/113 111/78/112 114/147/192 93/119/193
f 88/105/194 115/148/195 112/145/190 87/103/189
f 113/146/191 112/145/190 115/148/195 116/149/196
f 114/147/192 113/146/191 116/149/196 117/150/197
f 93/119/193 114/147/192 117/150/197 92/116/198
f 104/109/199 115/148/195 88/105/194
f 116/149/196 115/148/195 104/109/199 89/108/200 90/111/201
f 117/150/197 116/149/196 90/111/201 91/113/202 105/117/203
f 92/116/198 117/150/197 105/117/203
f 100/131/204 118/142/185 96/123/184 97/125/205 98/127/206 99/129/207
f 77/83/208 119/143/186 118/142/185 100/131/204 101/133/209 102/135/210 103/137/211
f 77/83/208 76/82/212 78/85/213 79/87/214 80/89/215 120/144/187 119/143/186
f 84/97/188 120/144/187 80/89/215 81/91/216 82/93/217 83/95/218
