# This file uses centimeters as units for non-parametric coordinates.

mtllib Speed.mtl
g default
v -0.543145 0.109116 0.131647
v -0.192088 0.135633 0.131647
v -0.064111 0.869456 0.131647
v 0.264432 1.427030 0.131647
v -0.064111 0.869456 -0.131647
v 0.264432 1.427030 -0.131647
v -0.543145 0.109116 -0.131647
v -0.192088 0.135633 -0.131647
v -0.462691 -0.065505 -0.131647
v -0.192088 -0.162570 -0.131647
v -0.192088 -0.162570 0.131647
v -0.462691 -0.065505 0.131647
v 0.388306 0.048248 -0.131647
v 0.388306 0.048248 0.131647
v 0.543145 -0.162570 0.131647
v 0.543145 -0.162570 -0.131647
v 0.013632 0.094513 -0.131647
v 0.013632 0.094513 0.131647
v 0.149948 -0.162570 0.131647
v 0.149948 -0.162570 -0.131647
v -0.041693 -1.427030 0.131647
v -0.041693 -1.427030 -0.131647
v 0.352432 -0.543286 -0.131647
v 0.352432 -0.543286 0.131647
v -0.064111 0.869456 0.101291
v 0.264432 1.427030 0.101291
v -0.192088 0.135633 0.101291
v 0.013632 0.094513 0.101291
v 0.388306 0.048248 0.101291
v 0.543145 -0.162570 0.101291
v 0.352432 -0.543286 0.101291
v -0.041693 -1.427030 0.101291
v 0.149948 -0.162570 0.101291
v -0.192088 -0.162570 0.101291
v -0.462691 -0.065505 0.101291
v -0.543145 0.109116 0.101291
v -0.543145 0.109116 -0.112264
v -0.462691 -0.065505 -0.112264
v -0.192088 -0.162570 -0.112264
v 0.149948 -0.162570 -0.112264
v -0.041693 -1.427030 -0.112264
v 0.352432 -0.543286 -0.112264
v 0.543145 -0.162570 -0.112264
v 0.388306 0.048248 -0.112264
v 0.013632 0.094513 -0.112264
v -0.192088 0.135633 -0.112264
v 0.264432 1.427030 -0.112264
v -0.064111 0.869456 -0.112264
v -0.090345 0.835445 0.131647
v 0.248201 1.393019 0.131647
v 0.248201 1.393019 0.101291
v 0.248201 1.393019 -0.112264
v 0.248201 1.393019 -0.131647
v -0.090345 0.835445 -0.131647
v -0.090345 0.835445 -0.112264
v -0.090345 0.835445 0.101291
v -0.037736 -1.400920 0.131647
v -0.037736 -1.400921 0.101291
v -0.037736 -1.400920 -0.112264
v -0.037736 -1.400920 -0.131647
v 0.359733 -0.519943 -0.131647
v 0.359733 -0.519943 -0.112264
v 0.359733 -0.519943 0.101291
v 0.359733 -0.519943 0.131647
vt 0.793015 0.452518
vt 0.793015 0.448636
vt 0.817390 0.448636
vt 0.817390 0.452517
vt 0.789550 0.448636
vt 0.789550 0.452518
vt 0.793015 0.305119
vt 0.817390 0.305119
vt 0.819602 0.448636
vt 0.819602 0.452518
vt 0.789550 0.305119
vt 0.819602 0.305119
vt 0.793022 0.622875
vt 0.793021 0.602943
vt 0.817396 0.602942
vt 0.817397 0.622873
vt 0.789556 0.602944
vt 0.789557 0.622875
vt 0.793018 0.520041
vt 0.817393 0.520040
vt 0.819608 0.602942
vt 0.819609 0.622873
vt 0.789553 0.520041
vt 0.817392 0.516158
vt 0.793018 0.516159
vt 0.819605 0.520040
vt 0.789553 0.516159
vt 0.819605 0.516158
vt 0.789550 0.452518
vt 0.819602 0.452517
vt 0.793018 0.171356
vt 0.793021 0.070486
vt 0.817396 0.070487
vt 0.817393 0.171356
vt 0.789556 0.070486
vt 0.789553 0.171356
vt 0.819608 0.070487
vt 0.819605 0.171356
vt 0.817393 0.174021
vt 0.793018 0.174020
vt 0.789553 0.174020
vt 0.819605 0.174021
vt 0.817392 0.214811
vt 0.793017 0.214810
vt 0.789552 0.214810
vt 0.819604 0.214811
vt 0.817391 0.238873
vt 0.793016 0.238873
vt 0.789552 0.238873
vt 0.819604 0.238874
vt 0.793036 0.837125
vt 0.793036 0.834145
vt 0.817411 0.834143
vt 0.817411 0.837123
vt 0.789571 0.834145
vt 0.789571 0.837125
vt 0.793026 0.692801
vt 0.817401 0.692799
vt 0.819623 0.834143
vt 0.819623 0.837123
vt 0.789562 0.692801
vt 0.819614 0.692799
vt 0.817399 0.653760
vt 0.793024 0.653761
vt 0.819609 0.622873
vt 0.819611 0.653759
vt 0.789559 0.653761
vt 0.789557 0.622875
vt 0.819614 0.692799
vt 0.789562 0.692801
vt 0.817391 0.281638
vt 0.793015 0.281638
vt 0.819603 0.281638
vt 0.819604 0.238873
vt 0.789551 0.281638
vt 0.789552 0.238873
vt 0.819602 0.305119
vt 0.789550 0.305118
vt 0.166335 0.765735
vt 0.264809 0.927917
vt 0.271408 0.936669
vt 0.171593 0.777069
vt 0.544848 0.261894
vt 0.644663 0.102294
vt 0.638063 0.111046
vt 0.539590 0.273227
vt 0.407884 0.484495
vt 0.509996 0.476782
vt 0.509996 0.563520
vt 0.431286 0.535287
vt 0.569834 0.488743
vt 0.609484 0.563520
vt 0.678816 0.502200
vt 0.723854 0.563520
vt 0.670505 0.667470
vt 0.554893 0.923720
vt 0.668381 0.674259
vt 0.553741 0.931314
vt 0.136741 0.562180
vt 0.034629 0.554467
vt 0.058031 0.503675
vt 0.136741 0.475442
vt 0.236229 0.475442
vt 0.196579 0.550220
vt 0.350599 0.475442
vt 0.305561 0.536763
vt 0.181638 0.115243
vt 0.297250 0.371493
vt 0.180487 0.107648
vt 0.295126 0.364703
vn 0.000000 0.000000 1.000000
vn -0.000000 0.000000 1.000000
vn -0.000014 0.000000 -1.000000
vn -0.000014 0.000000 -1.000000
vn -0.861557 0.507661 0.000000
vn -0.861557 0.507661 0.000000
vn -0.861557 0.507661 0.000000
vn -0.861557 0.507661 0.000000
vn -0.000008 0.000000 1.000000
vn -0.000008 0.000000 1.000000
vn -0.000000 0.000000 -1.000000
vn -0.000000 0.000000 -1.000000
vn -0.337634 -0.941278 0.000000
vn -0.156485 -0.987680 0.000000
vn -0.156485 -0.987680 0.000000
vn -0.337634 -0.941278 0.000000
vn 0.902498 -0.430695 0.000000
vn 0.942822 -0.333296 -0.000000
vn 0.942822 -0.333296 0.000000
vn 0.902498 -0.430695 0.000000
vn -0.791820 0.610754 -0.000000
vn -0.846082 0.533053 -0.000000
vn -0.846082 0.533053 -0.000000
vn -0.791820 0.610754 -0.000000
vn 0.000000 0.000000 -1.000000
vn 0.000000 0.000000 -1.000000
vn 0.000000 0.000000 -1.000000
vn 0.000000 0.000000 -1.000000
vn 0.998738 -0.050224 -0.000000
vn 0.805969 0.591958 0.000000
vn 0.805969 0.591958 0.000000
vn 0.998738 -0.050224 0.000000
vn 0.000000 0.000000 1.000000
vn 0.000000 0.000000 1.000000
vn 0.000000 0.000000 1.000000
vn 0.000000 0.000000 1.000000
vn -0.908237 -0.418456 0.000000
vn -0.908237 -0.418456 0.000000
vn -0.908237 -0.418456 0.000000
vn -0.908237 -0.418456 0.000000
vn 0.122549 0.992463 0.000000
vn 0.148882 0.988855 -0.000000
vn 0.148882 0.988855 -0.000000
vn 0.122549 0.992463 -0.000000
vn -0.000000 0.000000 1.000000
vn 0.000000 0.000000 1.000000
vn 0.000000 0.000000 1.000000
vn 0.000000 0.000000 1.000000
vn 0.913293 -0.407303 -0.000000
vn 0.913293 -0.407303 -0.000000
vn 0.913293 -0.407303 0.000000
vn 0.913293 -0.407303 0.000000
vn 0.000000 0.000000 -1.000000
vn 0.000000 0.000000 -1.000000
vn -0.000000 0.000000 -1.000000
vn -0.000000 0.000000 -1.000000
vn 0.196005 0.980603 -0.000000
vn 0.196005 0.980603 -0.000000
vn 0.000000 -1.000000 0.000000
vn 0.000000 -1.000000 0.000000
vn -0.988709 0.149848 0.000000
vn -0.988709 0.149848 0.000000
vn -0.988709 0.149848 0.000000
vn -0.988709 0.149848 0.000000
vn 0.000000 0.000000 -1.000000
vn 0.000000 0.000000 -1.000000
vn 0.000001 0.000000 -1.000000
vn 0.000001 0.000000 -1.000000
vn 0.954403 -0.298523 0.000000
vn 0.894093 -0.447881 -0.000000
vn 0.894093 -0.447881 -0.000000
vn 0.954403 -0.298523 -0.000000
vn 0.000000 0.000000 1.000000
vn 0.000000 0.000000 1.000000
vn 0.000001 0.000000 1.000000
vn 0.000001 0.000000 1.000000
vn -0.861557 0.507661 0.000000
vn -0.861557 0.507661 0.000000
vn 0.942822 -0.333296 0.000001
vn 0.902498 -0.430695 0.000000
vn 0.196005 0.980603 0.000000
vn 0.148882 0.988855 0.000000
vn 0.122549 0.992463 0.000000
vn 0.805969 0.591958 0.000000
vn 0.998738 -0.050224 -0.000001
vn 0.894093 -0.447881 -0.000001
vn 0.954402 -0.298523 -0.000002
vn 0.913293 -0.407303 -0.000001
vn 0.913293 -0.407303 -0.000001
vn -0.988709 0.149848 0.000000
vn -0.988709 0.149848 0.000000
vn -0.156485 -0.987680 0.000000
vn 0.000000 -1.000000 0.000000
vn -0.337634 -0.941278 0.000000
vn -0.908237 -0.418456 0.000000
vn -0.908237 -0.418456 0.000000
vn -0.846082 0.533053 0.000000
vn -0.791820 0.610755 0.000000
vn -0.908237 -0.418456 0.000000
vn -0.908237 -0.418456 0.000000
vn -0.337634 -0.941278 0.000000
vn -0.156485 -0.987680 0.000000
vn 0.000000 -1.000000 0.000000
vn -0.988709 0.149848 0.000000
vn -0.988709 0.149848 0.000000
vn 0.913293 -0.407303 0.000000
vn 0.913293 -0.407303 0.000000
vn 0.894093 -0.447881 -0.000003
vn 0.954403 -0.298522 -0.000000
vn 0.805969 0.591958 0.000000
vn 0.998738 -0.050224 -0.000002
vn 0.148882 0.988855 0.000000
vn 0.122549 0.992463 0.000000
vn 0.196005 0.980603 0.000000
vn 0.942822 -0.333296 0.000001
vn 0.902498 -0.430695 0.000000
vn -0.861557 0.507662 0.000000
vn -0.861557 0.507662 0.000000
vn -0.846082 0.533053 0.000000
vn -0.791821 0.610754 0.000000
vn 0.943811 -0.330487 0.000001
vn 0.943811 -0.330487 0.000000
vn 0.943811 -0.330487 0.000000
vn 0.943811 -0.330487 0.000001
vn -0.848605 0.529028 0.000000
vn -0.848605 0.529028 -0.000000
vn -0.848605 0.529028 -0.000000
vn -0.848605 0.529028 0.000000
vn -0.988709 0.149848 0.000000
vn -0.988709 0.149848 0.000000
vn -0.988709 0.149848 0.000000
vn -0.988709 0.149848 0.000000
s 1
g pCube1
usemtl lambert2SG
f 49/79/1 50/80/2 4/81/3 3/82/4
s 2
f 25/25/5 26/1/6 47/4/7 48/24/8
s 3
f 5/83/9 6/84/10 53/85/11 54/86/12
s 4
f 38/16/13 39/63/14 34/64/15 35/13/16
s 5
f 26/1/17 51/2/18 52/3/19 47/4/20
s 6
f 48/24/21 55/20/22 56/19/23 25/25/24
s 3
f 7/87/25 8/88/26 10/89/27 9/90/28
s 7
f 43/43/29 44/47/30 29/48/31 30/44/32
s 1
f 2/99/33 1/100/34 12/101/35 11/102/36
s 8
f 35/13/37 36/14/38 37/15/39 38/16/40
s 9
f 44/47/41 45/71/42 28/72/43 29/48/44
s 1
f 18/104/45 19/103/46 15/105/47 14/106/48
s 10
f 31/31/49 32/32/50 41/33/51 42/34/52
s 3
f 20/92/53 17/91/54 13/93/55 16/94/56
s 9
f 45/71/42 46/8/57 27/7/58 28/72/43
s 1
f 2/99/33 11/102/36 19/103/46 18/104/45
s 4
f 33/57/59 34/64/15 39/63/14 40/58/60
s 3
f 10/89/27 8/88/26 17/91/54 20/92/53
s 11
f 32/51/61 58/52/62 59/53/63 41/54/64
s 3
f 60/96/65 61/95/66 23/97/67 22/98/68
s 7
f 42/34/69 62/39/70 63/40/71 31/31/72
s 1
f 64/108/73 57/107/74 21/109/75 24/110/76
s 2
f 3/27/77 4/29/78 26/1/6 25/25/5
s 5
f 50/5/79 51/2/18 26/1/17 4/6/80
s 9
f 28/72/43 27/7/58 2/78/81 18/75/82
f 29/48/44 28/72/43 18/75/82 14/76/83
s 7
f 30/44/32 29/48/31 14/49/84 15/45/85
f 31/31/72 63/40/71 64/41/86 24/36/87
s 10
f 21/35/88 32/32/50 31/31/49 24/36/89
s 11
f 57/55/90 58/52/62 32/51/61 21/56/91
s 4
f 11/67/92 34/64/15 33/57/59 19/70/93
f 35/13/16 34/64/15 11/67/92 12/68/94
s 8
f 1/17/95 36/14/38 35/13/37 12/18/96
s 6
f 25/25/24 56/19/23 49/23/97 3/27/98
s 8
f 38/16/40 37/15/39 7/21/99 9/22/100
s 4
f 9/65/101 10/66/102 39/63/14 38/16/13
f 40/58/60 39/63/14 10/66/102 20/69/103
s 11
f 41/54/64 59/53/63 60/59/104 22/60/105
s 10
f 42/34/52 41/33/51 22/37/106 23/38/107
s 7
f 61/42/108 62/39/70 42/34/69 23/38/109
f 13/50/110 44/47/30 43/43/29 16/46/111
s 9
f 17/73/112 45/71/42 44/47/41 13/74/113
f 8/77/114 46/8/57 45/71/42 17/73/112
s 5
f 47/4/20 52/3/19 53/9/115 6/10/116
s 2
f 48/24/8 47/4/7 6/30/117 5/28/118
s 6
f 54/26/119 55/20/22 48/24/21 5/28/120
s 1
f 1/100/34 2/99/33 50/80/2 49/79/1
s 5
f 2/11/121 27/7/122 51/2/18 50/5/79
f 52/3/19 51/2/18 27/7/122 46/8/123
f 53/9/115 52/3/19 46/8/123 8/12/124
s 3
f 54/86/12 53/85/11 8/88/26 7/87/25
s 6
f 7/21/125 37/15/126 55/20/22 54/26/119
f 56/19/23 55/20/22 37/15/126 36/14/127
f 49/23/97 56/19/23 36/14/127 1/17/128
s 11
f 19/61/129 33/57/130 58/52/62 57/55/90
f 59/53/63 58/52/62 33/57/130 40/58/131
f 60/59/104 59/53/63 40/58/131 20/62/132
s 3
f 20/92/53 16/94/56 61/95/66 60/96/65
s 7
f 16/46/111 43/43/29 62/39/70 61/42/108
f 63/40/71 62/39/70 43/43/29 30/44/32
f 64/41/86 63/40/71 30/44/32 15/45/85
s 1
f 15/105/47 19/103/46 57/107/74 64/108/73
